<svg xmlns="http://www.w3.org/2000/svg" width="1200" height="900" viewBox="0 0 1200 900" role="img" aria-label="Case study preview illustration">
  <rect width="1200" height="900" rx="40" fill="#0d0d11" />
  <rect x="80" y="100" width="480" height="420" rx="36" fill="#141417" stroke="#2c2e36" stroke-width="2" />
  <rect x="640" y="100" width="480" height="420" rx="36" fill="#141417" stroke="#2c2e36" stroke-width="2" />
  <rect x="80" y="560" width="1040" height="180" rx="30" fill="#111216" stroke="#2c2e36" stroke-width="2" />
  <circle cx="280" cy="300" r="18" fill="#7c3aed" />
  <rect x="320" y="280" width="180" height="22" rx="11" fill="#2d3748" />
  <rect x="320" y="320" width="280" height="18" rx="9" fill="#1f2937" />
  <rect x="320" y="360" width="240" height="18" rx="9" fill="#1f2937" />
  <rect x="100" y="620" width="360" height="26" rx="13" fill="#1f2937" />
  <rect x="100" y="670" width="260" height="18" rx="9" fill="#1f2937" />
  <rect x="520" y="620" width="520" height="26" rx="13" fill="#1f2937" />
  <rect x="520" y="670" width="440" height="18" rx="9" fill="#1f2937" />
  <text x="100" y="880" fill="#9ca3af" font-family="Inter, Arial, sans-serif" font-size="28">Revenue uplift with performance-driven rebuild</text>
</svg>
